<svg xmlns="http://www.w3.org/2000/svg" viewBox="0 0 300 64" role="img" aria-labelledby="title desc">
  <title id="title">LayerCove wordmark</title>
  <desc id="desc">The LayerCove name beside a cove enclosing three print layers.</desc>
  <g fill="none" stroke="currentColor" stroke-linecap="round" stroke-linejoin="round" stroke-width="6">
    <path d="M48 16H28C20 16 14 23 14 32s6 16 14 16h20"/>
    <path d="M18 24h24M14 32h33M18 40h24"/>
  </g>
  <g fill="currentColor">
    <path d="M73.1785451171875 47.0V16.604H78.31168017578125V42.64463486328125H91.87072744140625V47.0Z"/>
    <path d="M102.89675561523437 47.483404296875Q100.72848115234375 47.483404296875 98.98737900390626 46.69383937988282Q97.24627685546875 45.904274462890626 96.23524916992187 44.36284677734375Q95.224221484375 42.821419091796876 95.224221484375 40.57154462890625Q95.224221484375 38.63664248046875 95.95830024414062 37.38327016601562Q96.69237900390625 36.1298978515625 97.94372053222656 35.38497661132813Q99.19506206054687 34.64005537109375 100.7511759033203 34.260945825195314Q102.30728974609374 33.88183627929688 103.95135991210937 33.70133413085937Q105.95611313476562 33.47138090820312 107.20312912597656 33.31095751953124Q108.4501451171875 33.15053413085937 109.04297280273437 32.789047973632805Q109.63580048828125 32.42756181640625 109.63580048828125 31.644031982421872V31.533380908203124Q109.63580048828125 30.34623388671875 109.16708234863282 29.524256079101562Q108.69836420898437 28.702278271484374 107.77855131835938 28.262932446289064Q106.85873842773438 27.82358662109375 105.49664248046875 27.82358662109375Q104.111369921875 27.82358662109375 103.10130595703124 28.251344140625Q102.09124199218749 28.67910166015625 101.45515893554688 29.35304748535156Q100.81907587890625 30.026993310546874 100.51649497070312 30.793220996093748L95.87702148437499 29.753784716796872Q96.59561098632813 27.719980419921875 98.02019189453125 26.432428393554687Q99.44477280273438 25.1448763671875 101.36627375488281 24.526038183593748Q103.28777470703125 23.9072 105.45926157226562 23.9072Q106.971752734375 23.9072 108.57721430664063 24.26777971191406Q110.18267587890625 24.628359423828122 111.5510248046875 25.503104052734372Q112.91937373046875 26.377848681640625 113.76565249023437 27.908755126953125Q114.61193125 29.439661572265624 114.61193125 31.79484057617187V47.0H109.83211313476562V43.86395322265625H109.61081098632812Q109.13509404296875 44.80054033203125 108.24598449707031 45.62951694335938Q107.35687495117187 46.4584935546875 106.03119619140625 46.97094892578125Q104.70551743164063 47.483404296875 102.89675561523437 47.483404296875ZM104.11072744140625 43.68173032226562Q105.8335064453125 43.68173032226562 107.07368425292968 43.00361958007812Q108.31386206054687 42.325508837890624 108.9865802001953 41.2091193359375Q109.65929833984374 40.09272983398437 109.65929833984374 38.805395703125V36.01348686523437Q109.40552602539063 36.237565625 108.7623408203125 36.42533054199219Q108.11915561523438 36.613095458984375 107.30876611328125 36.7586720703125Q106.49837661132813 36.904248681640624 105.72568925781249 37.007636987304686Q104.95300190429687 37.11102529296875 104.43435083007812 37.17809975585938Q103.21409116210937 37.33542529296875 102.22010166015625 37.715601904296875Q101.22611215820312 38.095778515625 100.65000141601561 38.77853603515625Q100.07389067382812 39.4612935546875 100.07389067382812 40.561287353515624Q100.07389067382812 41.58587685546875 100.59777373046875 42.27867375488281Q101.12165678710937 42.97147065429687 102.02972075195312 43.326600488281244Q102.93778471679687 43.68173032226562 104.11072744140625 43.68173032226562Z"/>
    <path d="M120.15024487304687 55.16213413085937 121.33537231445312 51.216053955078124 121.91682958984376 51.37092412109375Q123.10344868164063 51.674147509765625 124.0390720703125 51.535673046875004Q124.97469545898437 51.39719858398438 125.62685297851561 50.6983666015625Q126.27901049804687 49.999534619140626 126.6007064453125 48.63188544921875L127.00090454101563 47.09302768554687L118.36647255859376 24.1928H123.70702670898437L128.01590166015626 36.81920717773437Q128.7558548828125 39.00542626953125 129.2363219482422 41.17140598144531Q129.71678901367187 43.33738569335937 130.290765625 45.554262060546876H128.90324438476563Q129.47722099609376 43.33738569335937 130.0207582275391 41.15826875Q130.5642954589844 38.97915180664062 131.30734653320312 36.81920717773437L135.73338950195313 24.1928H141.02417133789064L131.18400522460936 50.024959912109374Q130.4904052246094 51.852308837890625 129.45972336425783 53.119300244140625Q128.42904150390626 54.386291650390625 126.97054484863281 55.03834582519531Q125.51204819335938 55.6904 123.53623149414062 55.6904Q122.4336677734375 55.6904 121.5316849609375 55.529976611328124Q120.6297021484375 55.36955322265625 120.15024487304687 55.16213413085937Z"/>
    <path d="M154.73914462890625 47.4661021484375Q151.33447875976563 47.4661021484375 148.86698520507815 46.017862768554686Q146.39949165039064 44.56962338867187 145.0717821044922 41.93802338867187Q143.74407255859376 39.306423388671874 143.74407255859376 35.74475322265625Q143.74407255859376 32.230078759765625 145.05293103027344 29.56649045410156Q146.36178950195313 26.902902148437498 148.75649475097657 25.405051074218747Q151.15120000000002 23.9072 154.37536372070312 23.9072Q156.4141933105469 23.9072 158.27278471679688 24.567744628906247Q160.1313761230469 25.2282892578125 161.58426228027344 26.617359423828123Q163.0371484375 28.006429589843748 163.87632504882814 30.183355126953124Q164.71550166015626 32.3602806640625 164.71550166015626 35.398916943359374V37.0287828125H146.24462148437502V33.5285193359375H162.2021255371094L159.87758139648437 34.61217470703125Q159.87758139648437 32.6149021484375 159.25896110839844 31.099806201171873Q158.6403408203125 29.58471025390625 157.42350024414063 28.73629736328125Q156.20665966796875 27.88788447265625 154.39886157226564 27.88788447265625Q152.5910634765625 27.88788447265625 151.31612075195312 28.750822900390624Q150.04117802734376 29.613761328124998 149.371718359375 31.041704052734374Q148.70225869140626 32.46964677734375 148.70225869140626 34.190934130859375V36.59792744140625Q148.70225869140626 38.833804296875 149.46490666503905 40.37517470703125Q150.22755463867188 41.916545117187496 151.60588566894532 42.70098139648437Q152.98421669921876 43.48541767578125 154.80066586914063 43.48541767578125Q156.000204296875 43.48541767578125 156.9813778076172 43.141876147460934Q157.96255131835937 42.798334619140626 158.670034375 42.11280048828125Q159.37751743164063 41.42726635742187 159.753047265625 40.417202392578126L164.3600505859375 41.41990024414062Q163.81790166015625 43.227491650390625 162.50023149414062 44.58889904785156Q161.18256132812502 45.9503064453125 159.2160954589844 46.708204296874996Q157.24962958984375 47.4661021484375 154.73914462890625 47.4661021484375Z"/>
    <path d="M169.406630078125 47.0V24.1928H174.2251140625V27.94832744140625H174.4699140625Q175.0964395996094 26.014595703125 176.64187158203129 24.94637231445312Q178.18730356445315 23.878148925781247 180.16268447265625 23.878148925781247Q180.60593125000003 23.878148925781247 181.1581195556641 23.91617231445312Q181.71030786132815 23.954195703125 182.08370356445315 24.015716943359372V28.653905468749997Q181.7912653808594 28.560235302734373 181.0709090576172 28.47569807128906Q180.35055273437501 28.39116083984375 179.64552504882815 28.39116083984375Q178.13688876953125 28.39116083984375 176.93841740722655 29.033439599609373Q175.73994604492188 29.675718359374997 175.06135344238282 30.804499267578123Q174.38276083984377 31.93328017578125 174.38276083984377 33.41318662109375V47.0Z"/>
    <path d="M198.93697231445313 47.408Q194.964204296875 47.408 191.8380362792969 45.54743508300781Q188.71186826171876 43.68687016601562 186.91479809570313 40.194144628906244Q185.1177279296875 36.70141909179687 185.1177279296875 31.8224Q185.1177279296875 26.9171064453125 186.92360979003905 23.42144367675781Q188.72949165039063 19.925780908203123 191.85859689941407 18.06089045410156Q194.9877021484375 16.195999999999998 198.93697231445313 16.195999999999998Q201.39490834960938 16.195999999999998 203.54497421875 16.89563508300781Q205.69504008789065 17.595270166015624 207.37991025390625 18.940603100585935Q209.06478041992187 20.285936035156247 210.1649921142578 22.21731574707031Q211.26520380859375 24.148695458984374 211.63795703125 26.612184716796875H206.4695751953125Q206.20191982421875 25.211744140624997 205.52813461914064 24.14015893554687Q204.8543494140625 23.06857373046875 203.86019929199222 22.32306728515625Q202.8660491699219 21.57756083984375 201.63142458496094 21.198933154296874Q200.3968 20.820305468749996 199.00746586914065 20.820305468749996Q196.46772314453125 20.820305468749996 194.48481550292968 22.098827905273435Q192.50190786132814 23.377350341796873 191.375318359375 25.8308462890625Q190.2487288574219 28.284342236328122 190.2487288574219 31.8224Q190.2487288574219 35.38117900390625 191.38845559082034 37.83173771972656Q192.52818232421876 40.282296435546876 194.5052155029297 41.53299548339844Q196.48224868164064 42.78369453125 198.99571694335938 42.78369453125Q200.38505107421875 42.78369453125 201.6167384277344 42.397804077148436Q202.84842578125 42.01191362304687 203.84845036621095 41.27366994628906Q204.84847495117188 40.53542626953125 205.52813461914064 39.45657829589844Q206.20779428710938 38.37773032226562 206.48132412109376 36.991815283203124H211.64970595703127Q211.33259951171877 39.20580048828125 210.28819521484377 41.09467065429688Q209.24379091796877 42.9835408203125 207.58535583496095 44.406630078125Q205.92692075195313 45.8297193359375 203.74160810546874 46.61885966796875Q201.55629545898438 47.408 198.93697231445313 47.408Z"/>
    <path d="M226.3264849609375 47.4661021484375Q223.04945107421875 47.4661021484375 220.62259689941408 45.99436491699218Q218.19574272460937 44.52262768554687 216.86370764160156 41.87356491699219Q215.53167255859375 39.2245021484375 215.53167255859375 35.7157021484375Q215.53167255859375 32.16332553710937 216.86370764160156 29.506999999999998Q218.19574272460937 26.850674462890623 220.62259689941408 25.378937231445313Q223.04945107421875 23.9072 226.3264849609375 23.9072Q229.61804438476562 23.9072 232.04628686523438 25.378937231445313Q234.47452934570313 26.850674462890623 235.80656442871094 29.506999999999998Q237.13859951171875 32.16332553710937 237.13859951171875 35.7157021484375Q237.13859951171875 39.2245021484375 235.80656442871094 41.87356491699219Q234.47452934570313 44.52262768554687 232.04628686523438 45.99436491699218Q229.61804438476562 47.4661021484375 226.3264849609375 47.4661021484375ZM226.3264849609375 43.365151806640625Q228.2733427246094 43.365151806640625 229.5539992919922 42.32881337890625Q230.834655859375 41.292474951171876 231.46053891601562 39.552657763671874Q232.08642197265624 37.81284057617187 232.08642197265624 35.70395322265625Q232.08642197265624 33.574665869140624 231.46053891601562 31.829134838867187Q230.834655859375 30.08360380859375 229.5539992919922 29.045877075195314Q228.2733427246094 28.008150341796874 226.3264849609375 28.008150341796874Q224.38827827148438 28.008150341796874 223.11921000976565 29.045877075195314Q221.8501417480469 30.08360380859375 221.22425869140625 31.8218720703125Q220.59837563476563 33.56014033203125 220.59837563476563 35.70395322265625Q220.59837563476563 37.81284057617187 221.22425869140625 39.552657763671874Q221.8501417480469 41.292474951171876 223.11921000976565 42.32881337890625Q224.38827827148438 43.365151806640625 226.3264849609375 43.365151806640625Z"/>
    <path d="M248.40931313476563 47.0 239.86887255859375 24.1928H245.20942670898438L249.51830166015625 36.81920717773437Q250.2582548828125 38.97915180664062 250.78710595703126 41.16414321289062Q251.31595703125 43.34913461914063 251.8840591796875 45.554262060546876H250.5552825683594Q251.11751025390626 43.34913461914063 251.6434240966797 41.16708044433594Q252.16933793945313 38.98502626953125 252.8888911621094 36.81920717773437L257.17426826171874 24.1928H262.47957563476564L253.9273861328125 47.0Z"/>
    <path d="M276.20074462890625 47.4661021484375Q272.79607875976563 47.4661021484375 270.3285852050781 46.017862768554686Q267.8610916503906 44.56962338867187 266.53338210449215 41.93802338867187Q265.20567255859373 39.306423388671874 265.20567255859373 35.74475322265625Q265.20567255859373 32.230078759765625 266.5145310302735 29.56649045410156Q267.82338950195316 26.902902148437498 270.21809475097655 25.405051074218747Q272.6128 23.9072 275.8369637207031 23.9072Q277.8757933105469 23.9072 279.73438471679685 24.567744628906247Q281.59297612304687 25.2282892578125 283.04586228027347 26.617359423828123Q284.4987484375 28.006429589843748 285.33792504882814 30.183355126953124Q286.17710166015627 32.3602806640625 286.17710166015627 35.398916943359374V37.0287828125H267.706221484375V33.5285193359375H283.66372553710937L281.3391813964844 34.61217470703125Q281.3391813964844 32.6149021484375 280.72056110839844 31.099806201171873Q280.1019408203125 29.58471025390625 278.88510024414063 28.73629736328125Q277.66825966796875 27.88788447265625 275.86046157226565 27.88788447265625Q274.0526634765625 27.88788447265625 272.7777207519531 28.750822900390624Q271.50277802734377 29.613761328124998 270.833318359375 31.041704052734374Q270.1638586914063 32.46964677734375 270.1638586914063 34.190934130859375V36.59792744140625Q270.1638586914063 38.833804296875 270.9265066650391 40.37517470703125Q271.6891546386719 41.916545117187496 273.0674856689453 42.70098139648437Q274.44581669921877 43.48541767578125 276.26226586914066 43.48541767578125Q277.461804296875 43.48541767578125 278.44297780761724 43.141876147460934Q279.4241513183594 42.798334619140626 280.13163437500003 42.11280048828125Q280.83911743164066 41.42726635742187 281.214647265625 40.417202392578126L285.8216505859375 41.41990024414062Q285.27950166015626 43.227491650390625 283.9618314941406 44.58889904785156Q282.644161328125 45.9503064453125 280.6776954589844 46.708204296874996Q278.71122958984375 47.4661021484375 276.20074462890625 47.4661021484375Z"/>
  </g>
</svg>
